<mxfile host="app.diagrams.net" agent="Mozilla/5.0 (Windows NT 10.0; Win64; x64; rv:131.0) Gecko/20100101 Firefox/131.0" version="24.7.17">
  <diagram name="Page-1" id="4ZPZOxWratbAk8MA0d52">
    <mxGraphModel dx="1185" dy="632" grid="1" gridSize="10" guides="1" tooltips="1" connect="1" arrows="1" fold="1" page="1" pageScale="1" pageWidth="850" pageHeight="1100" math="0" shadow="0">
      <root>
        <mxCell id="0" />
        <mxCell id="1" parent="0" />
        <mxCell id="YWrsg1rzncooKjmh2umx-3" value="" style="edgeStyle=orthogonalEdgeStyle;rounded=0;orthogonalLoop=1;jettySize=auto;html=1;" edge="1" parent="1" source="YWrsg1rzncooKjmh2umx-1" target="YWrsg1rzncooKjmh2umx-2">
          <mxGeometry relative="1" as="geometry" />
        </mxCell>
        <mxCell id="YWrsg1rzncooKjmh2umx-1" value="Start" style="rounded=0;whiteSpace=wrap;html=1;" vertex="1" parent="1">
          <mxGeometry x="365" y="40" width="120" height="60" as="geometry" />
        </mxCell>
        <mxCell id="YWrsg1rzncooKjmh2umx-5" value="" style="edgeStyle=orthogonalEdgeStyle;rounded=0;orthogonalLoop=1;jettySize=auto;html=1;" edge="1" parent="1" source="YWrsg1rzncooKjmh2umx-2" target="YWrsg1rzncooKjmh2umx-4">
          <mxGeometry relative="1" as="geometry" />
        </mxCell>
        <mxCell id="YWrsg1rzncooKjmh2umx-2" value="Ask the user about the order" style="whiteSpace=wrap;html=1;rounded=0;" vertex="1" parent="1">
          <mxGeometry x="365" y="180" width="120" height="60" as="geometry" />
        </mxCell>
        <mxCell id="YWrsg1rzncooKjmh2umx-7" value="" style="edgeStyle=orthogonalEdgeStyle;rounded=0;orthogonalLoop=1;jettySize=auto;html=1;" edge="1" parent="1" source="YWrsg1rzncooKjmh2umx-4" target="YWrsg1rzncooKjmh2umx-6">
          <mxGeometry relative="1" as="geometry" />
        </mxCell>
        <mxCell id="YWrsg1rzncooKjmh2umx-4" value="Print a report of the order" style="whiteSpace=wrap;html=1;rounded=0;" vertex="1" parent="1">
          <mxGeometry x="365" y="320" width="120" height="60" as="geometry" />
        </mxCell>
        <mxCell id="YWrsg1rzncooKjmh2umx-9" value="" style="edgeStyle=orthogonalEdgeStyle;rounded=0;orthogonalLoop=1;jettySize=auto;html=1;" edge="1" parent="1" source="YWrsg1rzncooKjmh2umx-6" target="YWrsg1rzncooKjmh2umx-8">
          <mxGeometry relative="1" as="geometry" />
        </mxCell>
        <mxCell id="YWrsg1rzncooKjmh2umx-11" value="" style="edgeStyle=orthogonalEdgeStyle;rounded=0;orthogonalLoop=1;jettySize=auto;html=1;" edge="1" parent="1" source="YWrsg1rzncooKjmh2umx-6" target="YWrsg1rzncooKjmh2umx-10">
          <mxGeometry relative="1" as="geometry" />
        </mxCell>
        <mxCell id="YWrsg1rzncooKjmh2umx-6" value="Check resources" style="rhombus;whiteSpace=wrap;html=1;rounded=0;" vertex="1" parent="1">
          <mxGeometry x="378" y="440" width="95" height="100" as="geometry" />
        </mxCell>
        <mxCell id="YWrsg1rzncooKjmh2umx-8" value="End program" style="shape=parallelogram;perimeter=parallelogramPerimeter;whiteSpace=wrap;html=1;fixedSize=1;rounded=0;" vertex="1" parent="1">
          <mxGeometry x="205" y="460" width="120" height="60" as="geometry" />
        </mxCell>
        <mxCell id="YWrsg1rzncooKjmh2umx-15" value="" style="edgeStyle=orthogonalEdgeStyle;rounded=0;orthogonalLoop=1;jettySize=auto;html=1;" edge="1" parent="1" source="YWrsg1rzncooKjmh2umx-10" target="YWrsg1rzncooKjmh2umx-14">
          <mxGeometry relative="1" as="geometry" />
        </mxCell>
        <mxCell id="YWrsg1rzncooKjmh2umx-10" value="Process Coins" style="shape=parallelogram;perimeter=parallelogramPerimeter;whiteSpace=wrap;html=1;fixedSize=1;rounded=0;" vertex="1" parent="1">
          <mxGeometry x="525" y="460" width="120" height="60" as="geometry" />
        </mxCell>
        <mxCell id="YWrsg1rzncooKjmh2umx-12" value="Yes" style="text;html=1;align=center;verticalAlign=middle;resizable=0;points=[];autosize=1;strokeColor=none;fillColor=none;" vertex="1" parent="1">
          <mxGeometry x="470" y="448" width="40" height="30" as="geometry" />
        </mxCell>
        <mxCell id="YWrsg1rzncooKjmh2umx-13" value="No" style="text;html=1;align=center;verticalAlign=middle;resizable=0;points=[];autosize=1;strokeColor=none;fillColor=none;" vertex="1" parent="1">
          <mxGeometry x="330" y="448" width="40" height="30" as="geometry" />
        </mxCell>
        <mxCell id="YWrsg1rzncooKjmh2umx-17" value="" style="edgeStyle=orthogonalEdgeStyle;rounded=0;orthogonalLoop=1;jettySize=auto;html=1;" edge="1" parent="1" source="YWrsg1rzncooKjmh2umx-14" target="YWrsg1rzncooKjmh2umx-16">
          <mxGeometry relative="1" as="geometry" />
        </mxCell>
        <mxCell id="YWrsg1rzncooKjmh2umx-20" value="" style="edgeStyle=orthogonalEdgeStyle;rounded=0;orthogonalLoop=1;jettySize=auto;html=1;" edge="1" parent="1" source="YWrsg1rzncooKjmh2umx-14" target="YWrsg1rzncooKjmh2umx-19">
          <mxGeometry relative="1" as="geometry" />
        </mxCell>
        <mxCell id="YWrsg1rzncooKjmh2umx-14" value="Check if the transaction is successful" style="rhombus;whiteSpace=wrap;html=1;rounded=0;" vertex="1" parent="1">
          <mxGeometry x="560" y="560" width="180" height="128" as="geometry" />
        </mxCell>
        <mxCell id="YWrsg1rzncooKjmh2umx-16" value="Make Coffee" style="shape=trapezoid;perimeter=trapezoidPerimeter;whiteSpace=wrap;html=1;fixedSize=1;rounded=0;" vertex="1" parent="1">
          <mxGeometry x="525" y="760" width="120" height="60" as="geometry" />
        </mxCell>
        <mxCell id="YWrsg1rzncooKjmh2umx-18" value="Yes" style="text;html=1;align=center;verticalAlign=middle;resizable=0;points=[];autosize=1;strokeColor=none;fillColor=none;" vertex="1" parent="1">
          <mxGeometry x="610" y="688" width="40" height="30" as="geometry" />
        </mxCell>
        <mxCell id="YWrsg1rzncooKjmh2umx-19" value="End program" style="shape=parallelogram;perimeter=parallelogramPerimeter;whiteSpace=wrap;html=1;fixedSize=1;rounded=0;" vertex="1" parent="1">
          <mxGeometry x="365" y="600" width="120" height="60" as="geometry" />
        </mxCell>
        <mxCell id="YWrsg1rzncooKjmh2umx-21" value="No" style="text;html=1;align=center;verticalAlign=middle;resizable=0;points=[];autosize=1;strokeColor=none;fillColor=none;" vertex="1" parent="1">
          <mxGeometry x="500" y="598" width="40" height="30" as="geometry" />
        </mxCell>
      </root>
    </mxGraphModel>
  </diagram>
</mxfile>
